<?xml version="1.0" encoding="utf-8"?>
<!-- Generator: Adobe Illustrator 15.1.0, SVG Export Plug-In . SVG Version: 6.00 Build 0)  -->
<!DOCTYPE svg PUBLIC "-//W3C//DTD SVG 1.1//EN" "http://www.w3.org/Graphics/SVG/1.1/DTD/svg11.dtd">
<svg version="1.1" id="Layer_1" xmlns="http://www.w3.org/2000/svg" xmlns:xlink="http://www.w3.org/1999/xlink" x="0px" y="0px"
	 width="101.236px" height="92.761px" viewBox="69.853 35.163 101.236 92.761"
	 enable-background="new 69.853 35.163 101.236 92.761" xml:space="preserve">
<path fill="#0CA1E0" d="M142.13,69.627c7.752-4.031,16.434-5.892,25.117-6.822c2.48-0.31,4.34-2.791,3.721-5.271
	c-0.311-2.481-2.791-4.031-5.271-3.721c-9.613,1.24-18.916,3.411-27.598,7.752c-2.171,1.24-3.412,3.721-2.171,5.892
	C137.478,69.627,139.958,70.558,142.13,69.627"/>
<path fill="#808080" d="M137.478,58.464c4.652-7.132,11.783-11.783,19.535-14.574c2.482-0.93,3.412-3.721,2.482-5.892
	c-1.242-2.481-3.723-3.411-5.893-2.481c-9.303,3.411-17.675,9.303-23.257,17.365c-1.55,2.17-1.24,4.961,0.931,6.512
	C133.137,60.945,136.238,60.635,137.478,58.464"/>
<path fill="#0CA1E0" d="M117.323,51.332c-3.411-4.962-6.822-7.132-12.094-10.543c-2.481-1.55-6.202-4.031-8.993-4.961
	c-2.48-1.24-4.961,0-5.892,2.481c-0.93,2.48,0,4.651,2.48,5.892c4.651,2.791,8.683,5.582,13.024,8.993
	c1.55,1.24,3.411,2.791,4.651,4.341c1.55,1.86,4.651,1.86,6.512,0.31C119.183,55.983,119.493,52.882,117.323,51.332"/>
<path fill="#0CA1E0" d="M101.818,69.627c-8.062,2.481-16.125,6.822-21.086,13.954c-1.55,1.86-1.24,4.962,0.93,6.513
	c1.86,1.55,4.961,1.24,6.512-0.931c3.721-5.892,10.543-8.993,17.055-10.854c2.481-0.931,3.411-3.411,2.481-5.892
	C106.779,69.627,103.989,68.697,101.818,69.627"/>
<path fill="#0CA1E0" d="M132.828,127.305c0,0-4.962-3.102-9.924-3.102c-4.961,0-13.333,3.721-13.333,3.721l4.961-52.715
	c2.481,1.24,5.271,2.17,9.303,2.17c4.651,0,6.202-1.24,9.303-2.79L132.828,127.305L132.828,127.305z M126.316,74.899
	c-3.412,0-6.203-3.101-6.203-6.202c0-3.101,2.791-6.202,6.203-6.202c3.41,0,6.201,2.791,6.201,6.202
	C132.828,72.108,130.037,74.899,126.316,74.899"/>
<path fill="#808080" d="M102.438,66.526c-7.752-5.582-17.675-7.442-27.598-7.442c-2.791-0.31-5.272-2.48-4.961-4.961
	c0.31-2.48,2.791-4.341,5.582-4.031c11.473,0.31,23.257,2.791,32.25,8.683c2.48,1.24,3.411,4.341,1.55,6.202
	C108.33,67.457,104.919,67.767,102.438,66.526"/>
</svg>
